<svg aria-hidden="true" style="position: absolute; width: 0; height: 0; overflow: hidden;" version="1.1" xmlns="http://www.w3.org/2000/svg" xmlns:xlink="http://www.w3.org/1999/xlink">
<defs>
<symbol id="icon-facebook22" viewBox="0 0 20 20">
<path d="M11.875 3.75h3.125v-3.75h-3.125c-2.412 0-4.375 1.963-4.375 4.375v1.875h-2.5v3.75h2.5v10h3.75v-10h3.125l0.625-3.75h-3.75v-1.875c0-0.339 0.286-0.625 0.625-0.625z"></path>
</symbol>
<symbol id="icon-instagram22" viewBox="0 0 20 20">
<path d="M10 1.801c2.672 0 2.988 0.012 4.039 0.059 0.977 0.043 1.504 0.207 1.855 0.344 0.465 0.18 0.801 0.398 1.148 0.746 0.352 0.352 0.566 0.684 0.75 1.148 0.137 0.352 0.301 0.883 0.344 1.855 0.047 1.055 0.059 1.371 0.059 4.039s-0.012 2.988-0.059 4.039c-0.043 0.977-0.207 1.504-0.344 1.855-0.18 0.465-0.398 0.801-0.746 1.148-0.352 0.352-0.684 0.566-1.148 0.75-0.352 0.137-0.883 0.301-1.855 0.344-1.055 0.047-1.371 0.059-4.039 0.059s-2.988-0.012-4.039-0.059c-0.977-0.043-1.504-0.207-1.855-0.344-0.465-0.18-0.801-0.398-1.148-0.746-0.352-0.352-0.566-0.684-0.75-1.148-0.137-0.352-0.301-0.883-0.344-1.855-0.047-1.055-0.059-1.371-0.059-4.039s0.012-2.988 0.059-4.039c0.043-0.977 0.207-1.504 0.344-1.855 0.18-0.465 0.398-0.801 0.746-1.148 0.352-0.352 0.684-0.566 1.148-0.75 0.352-0.137 0.883-0.301 1.855-0.344 1.051-0.047 1.367-0.059 4.039-0.059zM10 0c-2.715 0-3.055 0.012-4.121 0.059-1.063 0.047-1.793 0.219-2.426 0.465-0.66 0.258-1.219 0.598-1.773 1.156-0.559 0.555-0.898 1.113-1.156 1.77-0.246 0.637-0.418 1.363-0.465 2.426-0.047 1.070-0.059 1.41-0.059 4.125s0.012 3.055 0.059 4.121c0.047 1.063 0.219 1.793 0.465 2.426 0.258 0.66 0.598 1.219 1.156 1.773 0.555 0.555 1.113 0.898 1.77 1.152 0.637 0.246 1.363 0.418 2.426 0.465 1.066 0.047 1.406 0.059 4.121 0.059s3.055-0.012 4.121-0.059c1.062-0.047 1.793-0.219 2.426-0.465 0.656-0.254 1.215-0.598 1.77-1.152s0.898-1.113 1.152-1.77c0.246-0.637 0.418-1.363 0.465-2.426 0.047-1.066 0.059-1.406 0.059-4.121s-0.012-3.055-0.059-4.121c-0.047-1.063-0.219-1.793-0.465-2.426-0.246-0.664-0.586-1.223-1.145-1.777-0.555-0.555-1.113-0.898-1.77-1.152-0.637-0.246-1.363-0.418-2.426-0.465-1.070-0.051-1.41-0.063-4.125-0.063v0z"></path>
<path d="M10 4.863c-2.836 0-5.137 2.301-5.137 5.137s2.301 5.137 5.137 5.137 5.137-2.301 5.137-5.137c0-2.836-2.301-5.137-5.137-5.137zM10 13.332c-1.84 0-3.332-1.492-3.332-3.332s1.492-3.332 3.332-3.332c1.84 0 3.332 1.492 3.332 3.332s-1.492 3.332-3.332 3.332z"></path>
<path d="M16.539 4.66c0 0.662-0.537 1.199-1.199 1.199s-1.199-0.537-1.199-1.199c0-0.662 0.537-1.199 1.199-1.199s1.199 0.537 1.199 1.199z"></path>
</symbol>
<symbol id="icon-twitter22" viewBox="0 0 20 20">
<path d="M20 4.422c-0.734 0.328-1.527 0.547-2.355 0.645 0.848-0.508 1.496-1.313 1.805-2.27-0.793 0.469-1.672 0.812-2.605 0.996-0.75-0.797-1.816-1.293-2.996-1.293-2.266 0-4.102 1.836-4.102 4.102 0 0.32 0.035 0.633 0.105 0.934-3.41-0.172-6.434-1.805-8.457-4.289-0.352 0.605-0.555 1.313-0.555 2.062 0 1.422 0.723 2.68 1.824 3.414-0.672-0.020-1.305-0.207-1.859-0.512 0 0.016 0 0.035 0 0.051 0 1.988 1.414 3.648 3.293 4.023-0.344 0.094-0.707 0.145-1.082 0.145-0.266 0-0.52-0.027-0.773-0.074 0.523 1.629 2.039 2.816 3.832 2.852-1.406 1.102-3.172 1.758-5.098 1.758-0.332 0-0.656-0.020-0.98-0.059 1.82 1.168 3.977 1.844 6.293 1.844 7.547 0 11.676-6.254 11.676-11.676 0-0.18-0.004-0.355-0.012-0.531 0.801-0.574 1.496-1.297 2.047-2.121z"></path>
</symbol>
<symbol id="icon-linkedin22" viewBox="0 0 20 20">
<path d="M7.5 7.5h3.459v1.773h0.049c0.481-0.863 1.659-1.773 3.415-1.773 3.651 0 4.327 2.273 4.327 5.229v6.021h-3.606v-5.337c0-1.273-0.026-2.911-1.876-2.911-1.878 0-2.164 1.386-2.164 2.818v5.43h-3.604v-11.25z"></path>
<path d="M1.25 7.5h3.75v11.25h-3.75v-11.25z"></path>
<path d="M5 4.375c0 1.036-0.839 1.875-1.875 1.875s-1.875-0.839-1.875-1.875c0-1.036 0.839-1.875 1.875-1.875s1.875 0.839 1.875 1.875z"></path>
</symbol>

<!-- Iconos SVG para seccion Clientes Regulares (cr)-->
<symbol id="crone" viewBox="0 0 20 20">
<path d="m2.609.038 3.047 2.884L0 2.919v13.994h14.783v-5.351l3.043 2.881V.037H2.609zm12.04 11.186L6.01 3.046h8.639v8.178zm-2.682 3.642H2.34V5.454h.681v8.775h8.947v.637zm-7.354 3.911-.356.732-.356-.732h-.298l.519.977v.569h.27v-.569l.518-.977h-.297zm.446 1.545.125-.36h.599l.126.36h.28l-.585-1.546h-.241l-.584 1.546h.279zm.425-1.217.224.641H5.26l.224-.641zm1.416.604a.349.349 0 0 0-.058.196c0 .13.046.236.137.317s.214.121.367.121.284-.041.395-.124l.087.103h.299l-.227-.269a.774.774 0 0 0 .134-.468H7.81a.614.614 0 0 1-.065.283l-.298-.352.105-.076c.074-.054.128-.108.16-.161s.049-.114.049-.178c0-.098-.036-.179-.108-.245s-.163-.1-.276-.1c-.125 0-.224.035-.297.106s-.11.166-.11.287c0 .05.012.101.035.154s.066.117.126.193a.903.903 0 0 0-.23.213zm.697.341a.394.394 0 0 1-.244.087c-.077 0-.139-.022-.185-.067s-.069-.103-.069-.174c0-.083.042-.156.127-.221l.033-.023.338.398zm-.277-.684c-.073-.09-.109-.165-.109-.224 0-.052.015-.094.045-.128s.07-.051.12-.051c.047 0 .085.015.116.044s.046.063.046.103a.191.191 0 0 1-.066.15l-.033.027-.118.081zm2.516.839a.562.562 0 0 0 .183-.386h-.268c-.014.11-.048.189-.101.237s-.132.071-.238.071c-.115 0-.203-.044-.263-.132s-.089-.215-.089-.382v-.137c.001-.165.033-.29.096-.375s.153-.128.27-.128c.1 0 .177.025.228.074s.085.129.098.24h.268c-.017-.169-.078-.3-.182-.393s-.241-.139-.412-.139a.583.583 0 0 0-.557.347.9.9 0 0 0-.077.385v.144c.002.142.029.267.08.375a.57.57 0 0 0 .543.336.627.627 0 0 0 .424-.138zm1.579-.216a.96.96 0 0 0 .079-.399v-.086c-.001-.151-.028-.283-.081-.396a.59.59 0 0 0-.56-.352.617.617 0 0 0-.335.092c-.097.061-.172.149-.226.264s-.08.248-.08.399v.087c.001.148.028.278.081.392s.13.201.227.262c.098.061.21.091.335.091.127 0 .238-.03.335-.091s.173-.149.225-.263zm-.288-.874c.065.091.098.223.098.394v.081c0 .174-.032.306-.097.397s-.155.136-.274.136c-.117 0-.209-.046-.276-.139s-.099-.224-.099-.394v-.089c.001-.166.035-.295.1-.385s.157-.137.273-.137c.119 0 .211.046.275.137z"/>
</symbol>
<symbol id="crtwo" viewBox="0 0 20 20">
<path d="M6.845 1.209H6.79c-.084-.005-.168-.007-.252-.009h-.182a9.751 9.751 0 0 0-.518.012 11.315 11.315 0 0 0-4.206 1.073l-.173.083v8.856l.405-.137c.355-.122.734-.232 1.125-.334a13.722 13.722 0 0 1 3.238-.43v1.164a9.909 9.909 0 0 0-.426.012h-.033c-.841.046-1.675.174-2.491.382a12.62 12.62 0 0 0-2.968 1.157V1.679A11.853 11.853 0 0 1 3.423.413 11.865 11.865 0 0 1 6.357.035h.171c.204.005.404.014.591.028.493.035.982.113 1.462.233v1.145a9.045 9.045 0 0 0-1.417-.214l-.029-.002c-.099-.008-.198-.017-.29-.017zm2.016 1.17c.254.019.517.028.783.028a12.59 12.59 0 0 0 3.085-.396A12.72 12.72 0 0 0 15.696.853v11.156c-.974.567-2.022.994-3.115 1.266-.959.247-1.945.373-2.934.377a8.976 8.976 0 0 1-2.226-.262V2.162a9.33 9.33 0 0 0 1.44.216zm5.678.087-.405.136c-.372.125-.748.237-1.125.337a13.722 13.722 0 0 1-3.363.431c-.264 0-.507-.007-.742-.022l-.323-.021v9.111l.277.024c.257.022.522.034.789.034a10.758 10.758 0 0 0 2.648-.343 11.102 11.102 0 0 0 2.069-.744l.173-.083v-8.86zM1.095 16.92a.591.591 0 0 0-.45-.182.664.664 0 0 0-.26.049.597.597 0 0 0-.333.336.654.654 0 0 0-.047.251v1.518a.708.708 0 0 0 .06.311.538.538 0 0 0 .36.311.87.87 0 0 0 .227.032.631.631 0 0 0 .58-.396.63.63 0 0 0 .049-.242v-.17H.884v.135a.365.365 0 0 1-.023.135.247.247 0 0 1-.058.085.246.246 0 0 1-.083.044.263.263 0 0 1-.083.014.204.204 0 0 1-.186-.082.364.364 0 0 1-.053-.203v-1.415a.485.485 0 0 1 .049-.227c.021-.032.05-.058.084-.074s.073-.022.11-.018a.213.213 0 0 1 .177.086c.044.058.068.13.066.203v.131h.393v-.155a.704.704 0 0 0-.182-.479zM3.452 16.902a.685.685 0 0 0-.897 0 .626.626 0 0 0-.154.213.708.708 0 0 0-.058.294v1.456a.695.695 0 0 0 .058.298.58.58 0 0 0 .154.203c.061.056.132.1.209.128a.663.663 0 0 0 .474 0 .627.627 0 0 0 .423-.629v-1.456a.708.708 0 0 0-.058-.294.66.66 0 0 0-.15-.213zm-.186 1.963a.26.26 0 0 1-.079.21.289.289 0 0 1-.374 0c-.028-.027-.05-.06-.063-.096s-.019-.075-.016-.114v-1.456a.26.26 0 0 1 .079-.21.289.289 0 0 1 .374 0c.028.027.05.06.063.096s.019.075.016.114v1.456zM6.547 19.515V16.76h-.381l-.501 1.459h-.007l-.505-1.459h-.377v2.755h.394v-1.676h.007l.386 1.185h.196l.389-1.185h.007v1.676h.394zM8.783 16.952a.55.55 0 0 0-.223-.151.892.892 0 0 0-.285-.043H7.69v2.756h.393v-1.076h.202a.712.712 0 0 0 .354-.075.575.575 0 0 0 .216-.211.665.665 0 0 0 .09-.24 1.93 1.93 0 0 0 .021-.313 1.582 1.582 0 0 0-.038-.394.585.585 0 0 0-.145-.253zm-.202.84a.351.351 0 0 1-.036.143.226.226 0 0 1-.101.097.407.407 0 0 1-.185.035H8.08v-.937h.202a.372.372 0 0 1 .177.035.217.217 0 0 1 .092.102.406.406 0 0 1 .034.154v.183c0 .064.004.13 0 .189h-.004zM10.643 16.759h-.322l-.607 2.755h.393l.115-.592h.535l.115.592h.393l-.622-2.755zm-.362 1.788.193-.999h.007l.192.999h-.393zM13.18 18.419h-.007l-.593-1.66h-.377v2.755h.393v-1.657h.008l.6 1.657h.369v-2.755h-.393v1.66zM15.579 16.759l-.316 1.095h-.008l-.316-1.095h-.416l.539 1.591v1.165h.393V18.35l.539-1.591h-.416z"/>

</symbol>
<symbol id="crthree" viewBox="0 0 20 20">
        <path d="M3.527 19.614c.008 0 .015.002.022.004s.013.007.018.011l.104.099a.848.848 0 0 1-.292.188 1.136 1.136 0 0 1-.414.068 1.11 1.11 0 0 1-.389-.063.8.8 0 0 1-.483-.453.914.914 0 0 1-.066-.353.823.823 0 0 1 .272-.629.928.928 0 0 1 .312-.179c.128-.043.264-.065.401-.063a1.07 1.07 0 0 1 .373.058c.103.039.197.093.279.159l-.087.106a.082.082 0 0 1-.022.019.06.06 0 0 1-.035.008.104.104 0 0 1-.038-.011l-.047-.028-.065-.036a.831.831 0 0 0-.205-.063.887.887 0 0 0-.154-.011.845.845 0 0 0-.288.047.61.61 0 0 0-.373.345.697.697 0 0 0-.053.28.713.713 0 0 0 .053.284.591.591 0 0 0 .36.342.757.757 0 0 0 .267.045 1.04 1.04 0 0 0 .158-.009.615.615 0 0 0 .343-.146.078.078 0 0 1 .049-.018zM6.526 19.115a.853.853 0 0 1-.07.351c-.042.102-.109.195-.196.272s-.191.139-.307.179a1.267 1.267 0 0 1-.789 0 .92.92 0 0 1-.305-.179.785.785 0 0 1-.197-.275.912.912 0 0 1 0-.703.825.825 0 0 1 .197-.276.926.926 0 0 1 .305-.173c.254-.086.536-.086.789 0 .115.041.22.102.306.179a.81.81 0 0 1 .266.625zm-.273 0a.759.759 0 0 0-.049-.282.57.57 0 0 0-.358-.344.909.909 0 0 0-.574 0 .573.573 0 0 0-.359.344.828.828 0 0 0 0 .564.573.573 0 0 0 .359.343c.185.06.389.06.574 0a.6.6 0 0 0 .219-.132.597.597 0 0 0 .139-.211.72.72 0 0 0 .049-.282zM8.572 19.41l.027.063c.01-.023.019-.043.03-.063s.021-.042.034-.062l.663-1.048c.013-.018.025-.029.038-.033a.17.17 0 0 1 .055-.006h.196v1.704h-.232V18.659a.58.58 0 0 1 0-.059l-.667 1.063c-.008.016-.022.029-.039.039s-.037.014-.057.014h-.038c-.02 0-.04-.005-.057-.014s-.031-.023-.039-.039l-.687-1.069V19.962h-.225v-1.701h.196a.172.172 0 0 1 .055.006.069.069 0 0 1 .036.033l.678 1.049c.013.019.025.04.034.061zM11.069 19.326v.638h-.26v-1.702h.579c.109-.002.218.011.323.037a.658.658 0 0 1 .229.106.436.436 0 0 1 .13.167.498.498 0 0 1 .044.218.465.465 0 0 1-.188.388.668.668 0 0 1-.23.113 1.097 1.097 0 0 1-.313.039l-.314-.005zm0-.183h.314a.716.716 0 0 0 .201-.026.45.45 0 0 0 .145-.073.324.324 0 0 0 .119-.256c.003-.047-.006-.095-.026-.139s-.051-.084-.091-.116a.556.556 0 0 0-.349-.091h-.314v.702zM14.559 19.966h-.205a.093.093 0 0 1-.057-.016.109.109 0 0 1-.034-.04l-.177-.412h-.887l-.183.412a.098.098 0 0 1-.032.038.092.092 0 0 1-.058.017h-.205l.779-1.705h.27l.789 1.705zm-1.286-.632h.732l-.309-.694a1.058 1.058 0 0 1-.058-.16l-.03.089a.566.566 0 0 1-.029.072l-.306.693zM15.68 18.27a.107.107 0 0 1 .039.03l1.136 1.285v-1.323h.232v1.705h-.13c-.018.001-.037-.003-.053-.01s-.03-.019-.042-.032l-1.135-1.284a.58.58 0 0 1 0 .059V19.967h-.232v-1.705h.138c.016 0 .032.002.047.008zM19.001 19.288v.677h-.26v-.677l-.718-1.027h.232c.02-.001.04.004.056.015a.157.157 0 0 1 .035.038l.449.662a.728.728 0 0 1 .079.151l.034-.073a.6.6 0 0 1 .044-.078l.443-.667a.192.192 0 0 1 .034-.036.083.083 0 0 1 .056-.017h.235l-.719 1.031zM8.444 15.401c.113.012.227.023.343.032 1.752-.681 3.234-1.795 4.261-3.204s1.553-3.049 1.513-4.716L12.63 5.836c.393 1.775.209 3.61-.53 5.299s-2.005 3.167-3.656 4.267z"/>
      <path  d="m7.754 15.323.052.009c1.764-1.096 3.108-2.627 3.86-4.394s.876-3.69.357-5.519L9.273 3.03c1.112 1.964 1.56 4.162 1.291 6.338s-1.243 4.241-2.81 5.955zM17.08 9.483c-.467 1.832-1.602 3.484-3.235 4.711-.477.36-.992.681-1.537.959 1.33-.34 2.553-.94 3.574-1.755s1.813-1.823 2.314-2.946l-1.115-.968z"/>
      <path  d="m16.642 9.213-1.588-1.38c-.03 1.573-.545 3.11-1.49 4.452s-2.287 2.439-3.886 3.177h.008c.356 0 .712-.019 1.066-.055 1.494-.53 2.814-1.373 3.842-2.454s1.732-2.366 2.049-3.741zM7.984 2.023 6.09.375C4.397.944 2.94 1.943 1.911 3.243S.329 6.082.324 7.659c.006 1.743.682 3.434 1.919 4.806s2.966 2.346 4.912 2.769c1.737-1.839 2.755-4.112 2.904-6.487s-.577-4.731-2.074-6.723zM21.019 8.959c-.007-2.068-.955-4.049-2.638-5.512s-3.963-2.286-6.343-2.292c-1.1-.001-2.19.175-3.216.52L20.42 11.752c.397-.891.6-1.838.6-2.793z"/>
    
</symbol>
<symbol id="crfour" viewBox="0 0 20 20">
    <path  d="M6.26 6.281h-.001c-1.142 0-2.068.823-2.068 1.837v.001c0 1.015.926 1.837 2.068 1.837h.001c1.142 0 2.068-.823 2.068-1.837v-.001c0-1.015-.926-1.837-2.068-1.837zM21.521 5.693c-.003-1.41-.635-2.76-1.756-3.757S17.124.378 15.538.375c-1.587.003-3.107.564-4.229 1.561S9.555 4.284 9.552 5.694v7.773s11.968-1.185 11.97-7.772v-.001zM0 16.017c.003.981.442 1.921 1.223 2.614s1.838 1.085 2.941 1.087c1.103-.003 2.161-.394 2.941-1.087s1.22-1.633 1.223-2.613V10.61S0 11.435 0 16.017zm4.164.969c-.216 0-.426-.057-.606-.163s-.319-.258-.402-.435c-.083-.177-.104-.372-.062-.56s.146-.361.298-.496c.152-.136.347-.228.558-.265s.431-.018.63.055.37.198.489.357.184.347.184.538c.001.128-.027.254-.082.372s-.135.225-.236.316c-.101.09-.222.162-.354.211s-.275.074-.418.074v-.004zM11.776 15.252v2.031h-.419v-2.031h.419zm.809.867v.326h-.924v-.326h.924zm.098-.867v.328h-1.021v-.328h1.021zm1.911.968v.096c0 .154-.021.293-.063.416s-.101.227-.177.314c-.076.086-.167.151-.273.197s-.222.068-.35.068c-.127 0-.244-.023-.35-.068s-.196-.111-.273-.197c-.077-.086-.137-.191-.18-.314s-.063-.261-.063-.416v-.096c0-.155.021-.294.063-.416s.101-.227.177-.314c.077-.086.168-.153.273-.198s.223-.068.35-.068c.128 0 .245.023.35.068s.197.112.273.198c.077.086.137.191.179.314s.064.26.064.416zm-.422.096v-.099c0-.108-.01-.203-.029-.285s-.048-.151-.086-.206a.373.373 0 0 0-.328-.169.376.376 0 0 0-.326.169.614.614 0 0 0-.085.206c-.02.082-.029.177-.029.285v.099c0 .107.01.202.029.285s.048.151.087.208c.038.056.085.098.139.127s.118.043.188.043a.372.372 0 0 0 .326-.17c.037-.057.066-.126.085-.208s.029-.178.029-.285zm1.781.435c0-.036-.006-.069-.017-.098s-.03-.057-.059-.081c-.029-.025-.069-.05-.121-.074s-.12-.049-.202-.075c-.092-.03-.18-.063-.262-.1s-.154-.08-.218-.13c-.062-.05-.112-.108-.148-.174s-.053-.143-.053-.23c0-.085.019-.161.056-.23s.089-.129.156-.179c.067-.05.146-.089.237-.116s.193-.04.303-.04c.15 0 .28.027.392.081s.198.128.259.222a.57.57 0 0 1 .093.322h-.416c0-.06-.013-.112-.038-.156s-.061-.081-.112-.107a.399.399 0 0 0-.187-.039c-.073 0-.133.011-.181.033s-.085.051-.109.088a.217.217 0 0 0-.036.123c0 .034.008.066.025.093s.044.054.078.078.077.047.127.068.108.042.174.063c.111.033.208.071.292.113s.155.089.212.141a.507.507 0 0 1 .171.402.488.488 0 0 1-.201.414.708.708 0 0 1-.233.11c-.09.025-.191.038-.303.038-.1 0-.2-.013-.297-.039s-.186-.067-.266-.121a.586.586 0 0 1-.261-.503h.42c0 .063.01.117.029.16s.047.079.082.106c.036.027.079.046.128.059a.652.652 0 0 0 .344-.013.232.232 0 0 0 .105-.085.224.224 0 0 0 .035-.123zm1.611-1.499v2.031h-.417v-2.031h.417zm.625 0v.328h-1.657v-.328h1.657zm1.602 1.704v.326H18.71v-.326h1.081zm-.944-1.704v2.031h-.419v-2.031h.419zm.803.827v.318h-.94v-.318h.94zm.14-.827v.328h-1.08v-.328h1.08zm.245 0h.758c.155 0 .289.023.4.07s.199.115.259.206c.06.091.091.203.091.336 0 .109-.019.202-.056.28s-.088.142-.155.194a.819.819 0 0 1-.233.123l-.133.07h-.658l-.003-.326h.49c.073 0 .134-.013.183-.039s.085-.062.109-.109a.337.337 0 0 0 .038-.162c0-.065-.012-.121-.036-.169s-.061-.084-.11-.109a.408.408 0 0 0-.186-.038h-.339v1.703h-.419v-2.031zm1.136 2.031-.463-.905.442-.003.469.889v.02h-.448zm2.197-.724h-.518v-.326h.518c.08 0 .145-.013.195-.039s.087-.064.11-.112c.023-.047.035-.101.035-.16s-.012-.117-.035-.169c-.023-.052-.06-.094-.11-.126s-.115-.047-.195-.047h-.372v1.703h-.419v-2.031h.791c.159 0 .295.029.409.087a.621.621 0 0 1 .353.581c0 .131-.03.245-.091.34s-.148.17-.262.222a.975.975 0 0 1-.409.078zm2.414.397v.326h-1.081v-.326h1.081zm-.945-1.704v2.031h-.419v-2.031h.419zm.804.827v.318h-.94v-.318h.94zm.139-.827v.328H24.7v-.328h1.08zm1.182 0v2.031h-.417v-2.031h.417zm.625 0v.328H25.93v-.328h1.657zm1.601 1.704v.326h-1.081v-.326h1.081zm-.944-1.704v2.031h-.419v-2.031h.419zm.803.827v.318h-.94v-.318h.94zm.14-.827v.328h-1.08v-.328h1.08zm.246 0h.758c.155 0 .289.023.4.07s.199.115.26.206c.06.091.091.203.091.336 0 .109-.019.202-.056.28s-.088.142-.155.194a.819.819 0 0 1-.233.123l-.133.07h-.658l-.003-.326h.49c.073 0 .134-.013.183-.039s.085-.062.109-.109a.337.337 0 0 0 .038-.162c0-.065-.012-.121-.036-.169s-.061-.084-.11-.109a.408.408 0 0 0-.186-.038h-.339v1.703h-.419v-2.031zm1.135 2.031-.463-.905.442-.003.469.889v.02h-.448zm1.752-.532c0-.036-.006-.069-.017-.098s-.03-.057-.059-.081c-.029-.025-.069-.05-.121-.074s-.12-.049-.202-.075c-.092-.03-.18-.063-.262-.1s-.154-.08-.218-.13c-.062-.05-.112-.108-.148-.174s-.053-.143-.053-.23c0-.085.019-.161.056-.23s.089-.129.156-.179c.067-.05.146-.089.237-.116s.193-.04.303-.04c.15 0 .28.027.392.081s.198.128.259.222a.57.57 0 0 1 .093.322h-.416c0-.06-.013-.112-.038-.156s-.061-.081-.112-.107a.399.399 0 0 0-.187-.039c-.073 0-.133.011-.181.033s-.085.051-.109.088a.217.217 0 0 0-.036.123c0 .034.008.066.025.093s.044.054.078.078.077.047.127.068.108.042.174.063c.111.033.208.071.292.113s.155.089.212.141a.507.507 0 0 1 .171.402.488.488 0 0 1-.201.414.708.708 0 0 1-.233.11c-.09.025-.191.038-.303.038-.1 0-.2-.013-.297-.039s-.186-.067-.266-.121a.586.586 0 0 1-.261-.503h.42c0 .063.01.117.029.16s.047.079.082.106c.036.027.079.046.128.059a.652.652 0 0 0 .344-.013.232.232 0 0 0 .105-.085.224.224 0 0 0 .035-.123z"/>
</symbol>
<symbol id="crfive" viewBox="0 0 20 20">
    <path  d="M2.024 16.52a.61.61 0 0 1 .156.416c.005.099-.014.197-.056.288s-.106.172-.186.237a1.123 1.123 0 0 1-.703.192H-.001v-2.635h1.21a1.1 1.1 0 0 1 .671.175c.078.06.14.136.181.221s.059.179.054.272a.578.578 0 0 1-.141.403.67.67 0 0 1-.368.206.712.712 0 0 1 .417.225zm-1.449-.398h.517a.526.526 0 0 0 .329-.087.305.305 0 0 0 .111-.258.31.31 0 0 0-.109-.257.535.535 0 0 0-.339-.089H.575v.691zm.897 1.011a.318.318 0 0 0 .122-.268c.003-.051-.006-.102-.028-.149s-.055-.089-.097-.122a.568.568 0 0 0-.351-.095H.575v.725h.55a.582.582 0 0 0 .347-.091zM4.498 17.653l-.673-1.03h-.253v1.03h-.579v-2.635h1.096c.276-.018.55.063.763.224.153.143.246.331.261.531s-.049.398-.179.559a.911.911 0 0 1-.523.268l.717 1.053h-.63zm-.926-1.389h.474c.329 0 .493-.133.493-.399.003-.054-.006-.109-.026-.16s-.053-.097-.094-.136a.545.545 0 0 0-.372-.107h-.479l.006.802zM7.664 17.122H6.51l-.204.53h-.607l1.06-2.605h.656l1.056 2.605h-.607l-.2-.53zm-.155-.399-.422-1.112-.422 1.112h.843zM11.627 17.653h-.575l-1.289-1.792v1.792h-.574v-2.635h.574l1.289 1.802v-1.802h.575v2.635zM14.907 17.022a1.2 1.2 0 0 1-.52.465c-.25.116-.528.173-.808.166h-1.023v-2.635h1.023c.28-.007.557.049.808.162.22.102.401.262.52.459.118.214.18.451.18.691s-.062.477-.18.691zm-.657-.063c.164-.175.254-.398.254-.629s-.09-.454-.254-.629a1.057 1.057 0 0 0-.72-.224h-.399v1.705h.399c.263.015.521-.065.72-.224zM8.024.363s7.421 2.565 7.263 6.277v6.278s-7.415-2.566-7.26-6.278L8.024.363zM21.898 11.449a10.766 10.766 0 0 1 4.715-1.591V7.893c-1.95.688-3.604 1.936-4.715 3.556z"/>
      <path  d="M21.056 12.041c1.147-2.115 3.136-3.747 5.557-4.56V1.818s-10.568 3.654-10.345 8.94v8.939s.471-.163 1.212-.47c0-.286 0-.574.034-.864.219-2.454 1.493-4.728 3.542-6.322z"/>
      <path  d="M20.051 15.362c.056-.62.179-1.233.37-1.83-1.276 1.377-2.049 3.085-2.21 4.884a7.88 7.88 0 0 0-.028.515c.6-.264 1.299-.593 2.033-.981a8.466 8.466 0 0 1-.164-2.588zM20.471 15.394a8.129 8.129 0 0 0 .131 2.344c2.887-1.582 6.132-4.026 6.007-6.98v-.257c-2.063.211-3.993 1.037-5.493 2.35a8.22 8.22 0 0 0-.644 2.543z"/>
    
</symbol>
<symbol id="crsix" viewBox="0 0 20 20">
    <path  d="M21.078 9.553a1.312 1.312 0 0 1-.269-.884V7.388c0-.393.089-.691.267-.896s.484-.306.918-.305c.408 0 .697.087.868.261.187.222.277.493.257.766v.301h-.729V7.21a1.5 1.5 0 0 0-.021-.299.284.284 0 0 0-.104-.177.417.417 0 0 0-.264-.069.453.453 0 0 0-.278.073.339.339 0 0 0-.121.196 1.473 1.473 0 0 0-.029.317v1.555c-.012.15.021.3.094.437.036.046.087.083.146.106s.124.031.188.024a.399.399 0 0 0 .258-.07.314.314 0 0 0 .109-.189c.017-.103.025-.207.023-.312v-.315h.729v.288c.02.285-.068.568-.252.806-.168.19-.453.285-.873.285s-.737-.102-.916-.313zM24.114 9.566c-.184-.199-.276-.49-.276-.875V7.343c0-.381.092-.669.276-.864s.492-.293.924-.292c.429 0 .735.097.92.292s.278.484.278.864v1.348c0 .381-.094.673-.281.873s-.492.301-.916.301c-.424 0-.738-.102-.924-.3zm1.264-.323a.757.757 0 0 0 .088-.399v-1.65a.737.737 0 0 0-.086-.391c-.037-.047-.089-.084-.149-.107s-.127-.031-.192-.023c-.066-.008-.132 0-.193.023s-.112.06-.15.107a.727.727 0 0 0-.088.391v1.658a.739.739 0 0 0 .088.399c.042.042.095.076.154.099a.517.517 0 0 0 .374 0 .468.468 0 0 0 .154-.099v-.008zM27.113 6.227h.785l.59 2.487.604-2.487h.764l.077 3.59h-.565l-.06-2.495-.583 2.495h-.453l-.604-2.504-.056 2.504h-.571l.071-3.59zM30.813 6.227h1.223c.705 0 1.057.34 1.057 1.019 0 .651-.371.976-1.113.975h-.417v1.595h-.755l.005-3.59zm1.045 1.534c.075.008.15.002.222-.017s.138-.052.193-.096a.58.58 0 0 0 .109-.405 1.122 1.122 0 0 0-.036-.326c-.011-.036-.03-.069-.056-.098s-.058-.054-.095-.072a.786.786 0 0 0-.337-.057h-.293v1.073h.293zM34.182 6.227h.811l.832 3.59h-.704l-.165-.828h-.723l-.169.828h-.714l.832-3.59zm.693 2.346-.282-1.507-.282 1.507h.565zM36.497 6.227h.528l1.012 2.048V6.227h.627v3.59h-.503l-1.018-2.138v2.138h-.648l.002-3.59zM40.131 8.448l-.841-2.216h.708l.513 1.423.482-1.423h.693l-.83 2.216v1.369h-.725V8.448zM22.243 11.386v.188h-.616v1.459h-.258v-1.459h-.619v-.188h1.493zM24.175 13.032h-.199a.086.086 0 0 1-.056-.016.086.086 0 0 1-.033-.038l-.178-.391h-.855l-.178.391a.101.101 0 0 1-.027.044.099.099 0 0 1-.056.016h-.199l.755-1.646h.263l.764 1.64zm-1.251-.611h.713l-.302-.67a1.248 1.248 0 0 1-.056-.155l-.029.087-.027.069-.299.669zM25.476 12.871a.825.825 0 0 0 .263-.02c.037-.008.073-.018.109-.03l.101-.04v-.37h-.302c-.007 0-.015-.001-.022-.003s-.013-.006-.019-.01c-.005-.004-.009-.008-.012-.014s-.004-.011-.004-.016v-.126h.586v.631a1.068 1.068 0 0 1-.319.134 1.336 1.336 0 0 1-.189.034c-.073.007-.147.01-.22.01a1.17 1.17 0 0 1-.381-.061.928.928 0 0 1-.302-.172.805.805 0 0 1-.195-.261.811.811 0 0 1-.069-.342.755.755 0 0 1 .263-.605.926.926 0 0 1 .302-.171c.129-.042.266-.063.405-.061.07 0 .14.005.21.014.061.009.122.023.18.042a.881.881 0 0 1 .282.151l-.072.102c-.006.009-.014.017-.024.023s-.022.008-.034.009a.095.095 0 0 1-.047-.013.676.676 0 0 1-.074-.039.917.917 0 0 0-.432-.095.89.89 0 0 0-.291.046.564.564 0 0 0-.362.335.775.775 0 0 0 0 .549.648.648 0 0 0 .371.337.86.86 0 0 0 .299.033zM27.883 12.845h.824v.188H27.63v-1.646h.258l-.006 1.459zM29.565 13.032h-.258v-1.646h.258v1.646zM30.525 11.394a.13.13 0 0 1 .039.03l1.104 1.241a.58.58 0 0 1 0-.059V11.38h.225v1.653h-.13a.132.132 0 0 1-.056-.009.143.143 0 0 1-.041-.031l-1.102-1.24v1.28h-.216v-1.646h.134c.015 0 .029.003.042.008zM33.794 11.386v.181h-.915v.544h.741v.175h-.741v.562h.915v.181h-1.181v-1.642h1.181zM6.739 1.219l11.464 2.81v9.848L6.739 11.068V1.219zm-.736-.84v11.167l12.934 3.171V3.551L6.003.378z"/>
      <path  d="M12.935 19.902 0 16.728V5.562l12.935 3.173v11.167z"/>
      <path  d="m6.218 1.092 11.315 2.775-4.812 4.156L1.405 5.247l4.813-4.154zM6.003.379 0 5.562l12.935 3.173 6.002-5.183L6.003.379zM13.663 19.274l5.274-4.554-5.274-1.294v5.849z"/>
    
</symbol>

<!-- FIN Iconos SVG para seccion Clientes Regulares (cr)-->

<!-- iconos primera linea -->

    <symbol id="icon-Monitor" viewBox="0 0 45 20">
      <path fill="var(--color1, #f5f4fa)" d="M.667 0h43.667c.368 0 .667.298.667.667v18.667a.667.667 0 0 1-.667.667H.667A.667.667 0 0 1 0 19.334V.667C0 .299.298 0 .667 0z"/>
      <path fill="var(--color2, #2196f3)" d="M22.108 9.623h.389v1.749h-.389V9.623zM23.663 10.4h.389v.972h-.389V10.4zM20.553 10.983h.389v.389h-.389v-.389zM19.387 10.789h.389v.583h-.389v-.583z"/>
      <path fill="var(--color3, #212121)" d="M17.25 14.481h9.328a.583.583 0 0 0 .583-.583v-.777a.583.583 0 0 0-.583-.583h-.194V7.691l1.104-1.046a.586.586 0 1 0-.273-.278l-.832.788v-.448a.583.583 0 0 0-.583-.583h-7.774a.583.583 0 0 0-.583.583v5.83h-.194a.583.583 0 0 0-.583.583v.777c0 .322.261.583.583.583zM27.744 5.93a.194.194 0 1 1 0 .388.194.194 0 0 1 0-.388zm-9.911.777c0-.107.087-.194.194-.194h7.774c.107 0 .194.087.194.194v.816l-.389.369v-.797a.194.194 0 0 0-.194-.194h-6.996a.194.194 0 0 0-.194.194v4.859c0 .107.087.194.194.194h6.996a.194.194 0 0 0 .194-.194V8.427l.389-.368v4.478h-8.163v-5.83zm1.749 2.527a.582.582 0 1 0 .403 1.002l.676.339a.194.194 0 0 0 .232-.045l1.436-1.616 1.412 1.058a.194.194 0 0 0 .25-.014l1.227-1.162v2.964H18.61V7.29h6.608v.97l-1.375 1.302-1.423-1.067a.195.195 0 0 0-.262.026l-1.456 1.638-.544-.272a.55.55 0 0 0 .007-.071.583.583 0 0 0-.583-.583zm.194.583a.194.194 0 1 1-.388 0 .194.194 0 0 1 .388 0zm1.166 3.109h1.943v.194a.194.194 0 0 1-.194.194h-1.555a.194.194 0 0 1-.194-.194v-.194zm-3.887.195c0-.107.087-.194.194-.194h3.304v.194c0 .322.261.583.583.583h1.555a.583.583 0 0 0 .583-.583v-.194h3.304c.107 0 .194.087.194.194v.777a.194.194 0 0 1-.194.194H17.25a.194.194 0 0 1-.194-.194v-.777z"/>
    </symbol>
    
    <symbol id="icon-Antena" viewBox="0 0 19 20">
      <path fill="var(--color3, #212121)" d="m18.662 13.811-5.277-5.316.586-2.885c.151.059.312.09.474.091h.004a1.35 1.35 0 1 0-1.255-.897l-3.1.378L5.037.099a.328.328 0 0 0-.468-.003l-.945.94a.333.333 0 0 0 0 .471l.509.516a9.337 9.337 0 0 0 1.575 11.039.323.323 0 0 0 .091.061 1.962 1.962 0 0 0-.033.342v3.867h-4a1.67 1.67 0 0 0-1.667 1.667v.667c0 .184.149.333.333.333h15.333a.333.333 0 0 0 .333-.333v-.667a1.67 1.67 0 0 0-1.667-1.667h-4v-1.714a9.457 9.457 0 0 0 1.905.2 9.287 9.287 0 0 0 4.4-1.115l.511.514a.336.336 0 0 0 .235.1.33.33 0 0 0 .233-.097l.945-.94a.333.333 0 0 0 0-.471zm-4.684-9.915a.667.667 0 1 1 .47 1.14h-.002a.667.667 0 0 1-.466-1.139h-.001zm-.784 2.19-.374 1.841-.735-.739 1.109-1.102zm-.379-.564-1.2 1.193-.928-.933 2.128-.26zM14.431 18a1 1 0 0 1 1 1v.333H.764V19a1 1 0 0 1 1-1h12.667zm-4.667-1.333v.667H6.431v-.667h3.333zM6.431 16v-2.533c0-.809.748-1.467 1.667-1.467s1.667.658 1.667 1.467V16H6.432zm4-1.06v-1.473c0-1.176-1.047-2.133-2.333-2.133a2.376 2.376 0 0 0-2.051 1.116 8.668 8.668 0 0 1-1.424-9.929l11.626 11.693a8.641 8.641 0 0 1-5.818.727zm7.056-.427L4.326 1.275l.472-.47 4.959 4.987c.002 0 .004.004.006.006l8.197 8.245-.473.47z"/>
      <path fill="var(--color2, #2196f3)" d="M8.101 12.667h-.003a1 1 0 0 0-.003 2h.003a.999.999 0 1 0 .003-2zm.233 1.236a.334.334 0 1 1-.237-.57.334.334 0 0 1 .234.57h.003z"/>
    </symbol>
    <symbol 
      id="icon-diagrama" viewBox="0 0 32 32"><path fill="#2196f3" style="fill:var(--color2, #2196f3)" d="M14.926 14.965h1.066v4.798h-1.066v-4.797zM19.19 17.097h1.066v2.665H19.19v-2.665zM10.661 18.696h1.066v1.066h-1.066v-1.066zM7.463 18.163h1.066v1.599H7.463v-1.599z"/><path fill="#212121" style="fill:var(--color1, #212121)" d="M1.599 28.291h25.587a1.6 1.6 0 0 0 1.599-1.599V24.56a1.6 1.6 0 0 0-1.599-1.599h-.533V9.668L29.681 6.8a1.608 1.608 0 1 0-.746-.763L26.654 8.2V6.97a1.6 1.6 0 0 0-1.599-1.599H3.733A1.6 1.6 0 0 0 2.134 6.97v15.992h-.533a1.6 1.6 0 0 0-1.599 1.599v2.132a1.6 1.6 0 0 0 1.599 1.599zM30.384 4.837a.533.533 0 1 1 0 1.067.533.533 0 0 1 0-1.067zM3.198 6.969c0-.294.239-.533.533-.533h21.322c.294 0 .533.239.533.533v2.239l-1.066 1.013V8.035a.533.533 0 0 0-.533-.533H4.797a.533.533 0 0 0-.533.533v13.326c0 .294.239.533.533.533h19.19a.533.533 0 0 0 .533-.533v-9.674l1.066-1.01v12.284H3.198V6.969zm4.798 6.93a1.598 1.598 0 1 0 1.107 2.749l1.853.93a.532.532 0 0 0 .636-.123l3.939-4.431 3.872 2.901a.533.533 0 0 0 .686-.039l3.365-3.188v8.131H5.33V8.569h18.124v2.66l-3.771 3.572-3.904-2.927a.533.533 0 0 0-.718.072l-3.993 4.493-1.493-.746c.011-.064.018-.129.02-.193a1.6 1.6 0 0 0-1.599-1.599zm.533 1.599a.533.533 0 1 1-1.067 0 .533.533 0 0 1 1.067 0zm3.198 8.529h5.331v.533a.533.533 0 0 1-.533.533h-4.264a.533.533 0 0 1-.533-.533v-.533zm-10.661.533c0-.294.239-.533.533-.533h9.062v.533a1.6 1.6 0 0 0 1.599 1.599h4.264a1.6 1.6 0 0 0 1.599-1.599v-.533h9.062c.294 0 .533.239.533.533v2.132a.533.533 0 0 1-.533.533H1.598a.533.533 0 0 1-.533-.533V24.56z"/></symbol>

    <symbol id="icon-Reloj" viewBox="0 0 32 32"><path fill="#212121" style="fill:var(--color1, #212121)" d="M31.297 15.301C31.295 6.849 24.442-.002 15.989 0S.686 6.855.688 15.308a15.304 15.304 0 0 0 10.649 14.576.662.662 0 0 0 .529-.065.637.637 0 0 0 .283-.356l3.865-12.25a1.912 1.912 0 1 0-.84-3.635l-5.106-5.107a.637.637 0 0 0-.902.902l5.103 5.109a1.876 1.876 0 0 0 .536 2.309l-3.683 11.673C3.844 25.783.118 17.71 2.799 10.432S13.553-.572 20.831 2.109s11.004 10.754 8.323 18.032a14.042 14.042 0 0 1-7.462 7.973l-.398-1.874a.638.638 0 0 0-1.048-.344l-3.837 3.426a.637.637 0 0 0 .231 1.084l4.899 1.563a.638.638 0 0 0 .819-.74l-.391-1.839a15.255 15.255 0 0 0 9.329-14.089zm-15.305-.637a.638.638 0 1 1 0 1.277.638.638 0 0 1 0-1.277zm2.101 14.864 2.184-1.948.603 2.84-2.787-.892z"/><path fill="#2196f3" style="fill:var(--color2, #2196f3)" d="M15.354 3.185V4.46a.638.638 0 1 0 1.276 0V3.185a.638.638 0 0 0-1.276 0zM3.876 14.664a.638.638 0 0 0 0 1.276h1.275a.638.638 0 1 0 0-1.276H3.876zM28.108 15.939a.638.638 0 1 0 0-1.276h-1.275a.638.638 0 0 0 0 1.276h1.275z"/></symbol>
    <symbol id="icon-logo06" viewBox="0 0 57 32"><path d="M28.493 14.618a1.58 1.58 0 0 1-.323-1.061v-1.538c0-.471.107-.83.321-1.075s.581-.367 1.102-.366c.489 0 .836.104 1.042.313.224.266.333.592.308.92v.361h-.875v-.366c.003-.12-.005-.24-.025-.358a.352.352 0 0 0-.125-.213.505.505 0 0 0-.317-.083.533.533 0 0 0-.333.088.412.412 0 0 0-.145.235 1.74 1.74 0 0 0-.034.38v1.866c-.014.18.025.36.112.524.044.055.104.099.175.127s.149.038.226.029a.478.478 0 0 0 .31-.084.375.375 0 0 0 .13-.227c.02-.124.03-.249.027-.374v-.379h.875v.346c.025.342-.082.682-.303.967-.201.228-.544.343-1.047.343s-.884-.122-1.1-.375zM32.137 14.633c-.221-.239-.332-.588-.332-1.05v-1.617c0-.457.11-.802.332-1.037s.591-.351 1.109-.35c.515 0 .882.117 1.103.35.221.235.333.58.333 1.037v1.617c0 .457-.112.807-.337 1.048s-.591.361-1.1.361c-.509 0-.886-.122-1.109-.36zm1.517-.388a.906.906 0 0 0 .105-.479v-1.98a.88.88 0 0 0-.103-.469c-.044-.057-.106-.101-.179-.129s-.152-.037-.231-.027c-.079-.009-.159 0-.231.028s-.135.072-.18.129a.853.853 0 0 0-.105.469v1.99a.888.888 0 0 0 .105.479c.051.05.114.091.185.119a.612.612 0 0 0 .635-.119v-.009zM35.735 10.626h.942l.708 2.984.725-2.984h.917l.092 4.308h-.678l-.072-2.994-.699 2.994h-.544l-.725-3.005-.067 3.005h-.685l.085-4.308zM40.176 10.626h1.468c.846 0 1.268.408 1.268 1.223 0 .781-.445 1.171-1.335 1.17h-.5v1.915h-.906l.005-4.308zm1.254 1.841a.7.7 0 0 0 .498-.136.693.693 0 0 0 .13-.486 1.327 1.327 0 0 0-.044-.391c-.013-.043-.036-.083-.067-.118s-.07-.065-.114-.087a.94.94 0 0 0-.404-.069h-.352v1.287h.352zM44.218 10.626h.973l.998 4.308h-.844l-.197-.993h-.868l-.203.993h-.857l.998-4.308zm.832 2.815-.339-1.808-.339 1.808h.678zM46.996 10.626h.634l1.214 2.457v-2.457h.752v4.308h-.603l-1.221-2.565v2.565h-.777l.002-4.308zM51.357 13.291l-1.009-2.659h.85l.616 1.708.578-1.708h.832l-.997 2.659v1.642h-.87v-1.642zM29.892 16.817v.225h-.739v1.75h-.31v-1.75H28.1v-.225h1.792zM32.209 18.793h-.239a.105.105 0 0 1-.067-.019.102.102 0 0 1-.04-.045l-.214-.469h-1.026l-.214.469a.119.119 0 0 1-.033.053.112.112 0 0 1-.067.019h-.239l.906-1.976h.315l.917 1.968zm-1.5-.734h.855l-.362-.804a1.426 1.426 0 0 1-.067-.186 4.03 4.03 0 0 0-.034.105l-.033.083-.359.802zM33.771 18.599a1.018 1.018 0 0 0 .315-.023.961.961 0 0 0 .13-.036c.04-.014.08-.031.121-.048v-.444h-.362c-.009 0-.018-.001-.026-.003s-.016-.007-.023-.012c-.006-.004-.011-.01-.014-.016s-.005-.013-.004-.02v-.152h.703v.757a1.407 1.407 0 0 1-.609.202 2.591 2.591 0 0 1-.264.012 1.41 1.41 0 0 1-.457-.073 1.104 1.104 0 0 1-.362-.206.956.956 0 0 1-.234-.313.99.99 0 0 1-.083-.41.907.907 0 0 1 .316-.726c.103-.089.227-.159.362-.205.155-.05.32-.075.486-.074.084 0 .169.006.252.017a1.21 1.21 0 0 1 .397.128c.056.031.108.065.158.103l-.087.122c-.007.011-.017.021-.029.027s-.027.01-.041.01a.118.118 0 0 1-.056-.016 1.344 1.344 0 0 1-.089-.047.727.727 0 0 0-.121-.053 1.171 1.171 0 0 0-.167-.044 1.362 1.362 0 0 0-.23-.017 1.06 1.06 0 0 0-.35.055.704.704 0 0 0-.435.402.924.924 0 0 0 0 .659.756.756 0 0 0 .446.405c.115.034.237.047.359.039zM36.659 18.567h.989v.225h-1.292v-1.976h.31l-.007 1.75zM38.678 18.792h-.31v-1.976h.31v1.976zM39.83 16.826a.151.151 0 0 1 .047.036l1.324 1.489a.41.41 0 0 1 0-.07v-1.472h.27v1.984h-.156a.14.14 0 0 1-.067-.011.184.184 0 0 1-.049-.038l-1.323-1.488v1.536h-.259v-1.976h.161c.017 0 .035.003.051.009zM43.753 16.817v.217h-1.098v.652h.89v.21h-.89v.674h1.098v.217h-1.417v-1.971h1.417zM11.286 4.616l13.757 3.372v11.818l-13.757-3.371V4.616zm-.882-1.007V17.01l15.52 3.806V7.417L10.404 3.61z"/><path d="M18.722 27.036 3.2 23.227V9.828l15.522 3.807v13.401z"/><path d="m10.661 4.465 13.578 3.33-5.774 4.987L4.885 9.45l5.776-4.985zm-.257-.856L3.2 9.828l15.522 3.807 7.202-6.219-15.52-3.807zM19.595 26.282l6.329-5.465-6.329-1.553v7.018z"/>
    <symbol 
id="icon-astronauta" viewBox="0 0 32 32"><path fill="#2196f3" style="fill:var(--color2, #2196f3)" d="M31.974 4.524a.534.534 0 0 0-.43-.363l-1.91-.278-.855-1.731c-.179-.365-.777-.365-.956 0l-.855 1.731-1.91.278a.535.535 0 0 0-.296.91l1.383 1.348-.326 1.903c-.034.2.048.402.212.522a.53.53 0 0 0 .562.04l1.709-.899 1.709.899a.536.536 0 0 0 .775-.563l-.326-1.903 1.383-1.348a.536.536 0 0 0 .135-.547zm-2.463 1.327a.534.534 0 0 0-.153.472l.191 1.114-1-.526a.533.533 0 0 0-.498 0l-1.001.526.191-1.114a.534.534 0 0 0-.153-.472l-.81-.789 1.119-.163a.532.532 0 0 0 .402-.292l.5-1.013.5 1.013a.535.535 0 0 0 .402.292l1.119.163-.809.789zM26.134 20.522h-1.067v1.067h1.067v-1.067zM26.134 22.656h-1.067v1.067h1.067v-1.067zM27.2 21.589h-1.067v1.067H27.2v-1.067zM25.067 21.589H24v1.067h1.067v-1.067zM22.4 26.389h-1.067v1.067H22.4v-1.067zM22.4 28.522h-1.067v1.067H22.4v-1.067zM23.467 27.456H22.4v1.067h1.067v-1.067zM21.333 27.456h-1.067v1.067h1.067v-1.067zM16 24.256h-1.067v1.067H16v-1.067zM16 26.389h-1.067v1.067H16v-1.067zM17.067 25.322H16v1.067h1.067v-1.067zM14.933 25.322h-1.067v1.067h1.067v-1.067zM5.867 6.122H4.8v1.067h1.067V6.122zM5.867 8.255H4.8v1.067h1.067V8.255z"/><path fill="#2196f3" style="fill:var(--color2, #2196f3)" d="M6.933 7.189H5.866v1.067h1.067V7.189zM4.8 7.189H3.733v1.067H4.8V7.189z"/><path fill="#212121" style="fill:var(--color1, #212121)" d="M24.715 12.331a1.775 1.775 0 0 0-1.188-.705 1.778 1.778 0 0 0-1.34.352l-1.252.96-1.898 1.417-1.358-.541c2.421-1.086 4.114-3.508 4.114-6.32 0-3.823-3.123-6.933-6.961-6.933s-6.961 3.11-6.961 6.933a6.86 6.86 0 0 0 1.12 3.758l-2.764-.024h-.005c-.009 0-.015.004-.023.005a.515.515 0 0 0-.155.031l-.038.013c-.006.003-.013.003-.019.006l-3.233 1.596-.001.001-1.893.911a.397.397 0 0 0-.063.035 1.779 1.779 0 0 0-.598 2.295c.22.429.595.745 1.056.889a1.776 1.776 0 0 0 1.378-.128l1.388-.738 2.264-1.169 1.357-.008L2.2 20.383l-.002.001-1.339 1.333c-.316.315-.49.732-.49 1.178s.174.863.49 1.179c.325.323.752.485 1.179.485s.854-.162 1.18-.485l1.314-1.309 1.741-1.3.901.897-1.762 1.754-.002.001-1.339 1.333c-.316.315-.49.732-.49 1.178s.174.863.49 1.179c.325.323.753.485 1.18.485s.855-.162 1.18-.485l3.482-3.467.001-.002 1.01-1-.004-.004c.006-.006.015-.009.022-.015l5.166-5.658 3.471.494a.52.52 0 0 0 .262-.033c.018-.006.033-.015.05-.023.019-.01.039-.015.058-.027l3.213-2.133c.012-.008.018-.021.029-.029.013-.01.029-.014.041-.026l1.271-1.191c.662-.62.753-1.635.212-2.362zM2.13 15.942a.714.714 0 0 1-.558.052.717.717 0 0 1-.213-1.26l1.314-.632.449 1.313-.992.528zm3.498-1.828-1.548.8-.439-1.283 2.027-1.001-.04 1.484zm15.099-6.621a5.79 5.79 0 0 1-.599 2.559l-4.181-1.899a1.863 1.863 0 0 0-.788-1.388l1.464-4.86c2.378.756 4.105 2.974 4.105 5.588zm-11.789 0c0-3.235 2.644-5.867 5.894-5.867.253 0 .5.021.745.052l-1.432 4.754c-.019-.001-.037-.006-.057-.006-1.033 0-1.873.837-1.873 1.867s.84 1.867 1.873 1.867c.694 0 1.294-.383 1.618-.945l3.862 1.755a5.894 5.894 0 0 1-4.737 2.39c-3.25 0-5.894-2.632-5.894-5.867zm5.956.8c0 .441-.362.8-.806.8s-.806-.359-.806-.8c0-.441.362-.8.806-.8s.806.359.806.8zM2.465 23.318a.608.608 0 0 1-.854.001.592.592 0 0 1 0-.844l.962-.958.851.848-.959.955zm3.214 3.733a.608.608 0 0 1-.855.001.592.592 0 0 1 0-.844l.963-.959.852.848-.96.955zm3.481-3.469-.002.001-1.765 1.76-.852-.848 1.763-1.755.002-.001c.04-.04.065-.088.09-.135.007-.014.02-.026.026-.04.017-.041.019-.085.026-.129.003-.025.014-.047.014-.073 0-.036-.013-.07-.02-.106-.006-.032-.006-.065-.019-.095a.55.55 0 0 0-.091-.138c-.01-.012-.014-.027-.025-.038h-.001l-.001-.002-1.607-1.6c-.017-.017-.039-.024-.058-.038a.507.507 0 0 0-.087-.058.515.515 0 0 0-.093-.033.507.507 0 0 0-.103-.02.5.5 0 0 0-.095.005.53.53 0 0 0-.104.02.477.477 0 0 0-.094.045c-.02.011-.042.015-.061.029L4.23 21.657l-.901-.897 2.399-2.386 4.361 4.289-.928.919zm6.819-7.016c-.015-.002-.03.004-.045.003a.556.556 0 0 0-.3.075.492.492 0 0 0-.083.061c-.013.011-.028.017-.04.029l-4.698 5.146-4.328-4.257 2.833-2.818a.534.534 0 0 0-.379-.911v-.001l-2.219.013.028-1.607 3.104.027a6.947 6.947 0 0 0 4.981 2.101c.437 0 .864-.045 1.279-.123.04.032.079.065.13.085l2.41.96.331 1.644-3.003-.427zm4.041.178-.313-1.558 1.446-1.08.947 1.256-2.08 1.381zm3.754-2.831-.838.785-.931-1.236.831-.637a.735.735 0 0 1 .543-.143.718.718 0 0 1 .48.284.713.713 0 0 1-.085.947z"/><path fill="#212121" style="fill:var(--color1, #212121)" d="m13.602 18.544-2.143-2.133a.534.534 0 0 0-.753 0l-2.142 2.133a.537.537 0 0 0 0 .756l2.142 2.133a.536.536 0 0 0 .753 0l2.143-2.133a.535.535 0 0 0 0-.756zm-2.519 1.759-1.387-1.381 1.387-1.381 1.387 1.381-1.387 1.381zM17.164 5.071l-.258 1.036c.071.018 1.738.452 1.738 2.149h1.067c0-2.017-1.666-2.965-2.547-3.185zM19.711 9.322h-1.067v1.067h1.067V9.322z"/></symbol>

<!-- iconos header -->
    <symbol id="icon-telfono-inteligente" viewBox="0 0 13 20">
      <path  d="M10.625 0h-8.75A1.877 1.877 0 0 0 0 1.875v16.25C0 19.159.841 20 1.875 20h8.75a1.877 1.877 0 0 0 1.875-1.875V1.875A1.877 1.877 0 0 0 10.625 0zm-8.75 1.25h8.75c.345 0 .625.28.625.625V15h-10V1.875c0-.345.28-.625.625-.625zm8.75 17.5h-8.75a.625.625 0 0 1-.625-.625V16.25h10v1.875c0 .345-.28.625-.625.625z"/>
      <path  d="M2.942 17.174c.244.228.244.598 0 .825s-.64.228-.884 0-.244-.597 0-.825.64-.228.884 0z"/>
    </symbol>
    <symbol id="icon-sobre-activable" viewBox="0 0 27 20">
      <path  d="M24.167 0H2.5A2.502 2.502 0 0 0 0 2.5v15C0 18.878 1.121 20 2.5 20h21.667c1.378 0 2.5-1.122 2.5-2.5v-15c0-1.379-1.122-2.5-2.5-2.5zm0 1.667c.113 0 .221.023.319.065l-11.153 9.666L2.18 1.732a.826.826 0 0 1 .319-.065h21.667zm0 16.666H2.5a.833.833 0 0 1-.833-.833V3.492l11.121 9.638a.832.832 0 0 0 1.092 0l11.121-9.638V17.5c0 .46-.373.833-.833.833z"/>
    </symbol>
</defs>
</svg>
